<svg xmlns="http://www.w3.org/2000/svg" viewBox="0 0 1600 1000" preserveAspectRatio="xMidYMid slice" font-family="'Space Grotesk',sans-serif">
<defs>
  <linearGradient id="bg" x1="0" y1="0" x2="1" y2="1"><stop offset="0" stop-color="#0c0c10"/><stop offset="1" stop-color="#060608"/></linearGradient>
  <radialGradient id="glow" cx="0.5" cy="0.46" r="0.7"><stop offset="0" stop-color="#3dd6ff" stop-opacity="0.20"/><stop offset="1" stop-color="#3dd6ff" stop-opacity="0"/></radialGradient>
  <pattern id="grid" width="50" height="50" patternUnits="userSpaceOnUse"><path d="M50 0H0V50" fill="none" stroke="#3dd6ff" stroke-opacity="0.06" stroke-width="1"/></pattern>
</defs>
<rect width="1600" height="1000" fill="url(#bg)"/>
<rect width="1600" height="1000" fill="url(#grid)"/>
<rect width="1600" height="1000" fill="url(#glow)"/>
<g stroke="#3dd6ff" stroke-opacity="0.45" stroke-width="2" fill="none">
  <path d="M84 116V84H116"/><path d="M1516 116V84H1484"/><path d="M84 884V916H116"/><path d="M1516 884V916H1484"/>
</g>
<text x="800" y="908" font-size="22" letter-spacing="5" fill="#83838c" font-family="monospace" text-anchor="middle">SOLANA + EVM · RPC · NEXT-BLOCK MIRROR</text>
<g transform="translate(-280,60)"><defs><marker id="ar2" markerWidth="10" markerHeight="10" refX="6" refY="3" orient="auto"><path d="M0 0l6 3-6 3z" fill="#3dd6ff"/></marker><marker id="ar2b" markerWidth="10" markerHeight="10" refX="6" refY="3" orient="auto"><path d="M0 0l6 3-6 3z" fill="#3dd6ff" fill-opacity="0.5"/></marker></defs><line x1="740" y1="334" x2="740" y2="411" stroke="#3dd6ff" stroke-width="2" stroke-opacity="0.6"/><rect x="731" y="350" width="18" height="30" fill="#3dd6ff" fill-opacity="0.9"/><line x1="786" y1="312" x2="786" y2="419" stroke="#ff5c7c" stroke-width="2" stroke-opacity="0.6"/><rect x="777" y="350" width="18" height="57" fill="#ff5c7c" fill-opacity="0.9"/><line x1="832" y1="399" x2="832" y2="462" stroke="#ff5c7c" stroke-width="2" stroke-opacity="0.6"/><rect x="823" y="407" width="18" height="17" fill="#ff5c7c" fill-opacity="0.9"/><line x1="878" y1="375" x2="878" y2="444" stroke="#3dd6ff" stroke-width="2" stroke-opacity="0.6"/><rect x="869" y="397" width="18" height="27" fill="#3dd6ff" fill-opacity="0.9"/><line x1="924" y1="359" x2="924" y2="466" stroke="#ff5c7c" stroke-width="2" stroke-opacity="0.6"/><rect x="915" y="397" width="18" height="31" fill="#ff5c7c" fill-opacity="0.9"/><line x1="970" y1="401" x2="970" y2="450" stroke="#3dd6ff" stroke-width="2" stroke-opacity="0.6"/><rect x="961" y="418" width="18" height="10" fill="#3dd6ff" fill-opacity="0.9"/><line x1="1016" y1="401" x2="1016" y2="471" stroke="#ff5c7c" stroke-width="2" stroke-opacity="0.6"/><rect x="1007" y="418" width="18" height="21" fill="#ff5c7c" fill-opacity="0.9"/><line x1="1062" y1="431" x2="1062" y2="485" stroke="#ff5c7c" stroke-width="2" stroke-opacity="0.6"/><rect x="1053" y="439" width="18" height="34" fill="#ff5c7c" fill-opacity="0.9"/><line x1="1108" y1="423" x2="1108" y2="500" stroke="#3dd6ff" stroke-width="2" stroke-opacity="0.6"/><rect x="1099" y="433" width="18" height="40" fill="#3dd6ff" fill-opacity="0.9"/><line x1="1154" y1="424" x2="1154" y2="497" stroke="#ff5c7c" stroke-width="2" stroke-opacity="0.6"/><rect x="1145" y="433" width="18" height="39" fill="#ff5c7c" fill-opacity="0.9"/><line x1="1200" y1="440" x2="1200" y2="507" stroke="#ff5c7c" stroke-width="2" stroke-opacity="0.6"/><rect x="1191" y="472" width="18" height="4" fill="#ff5c7c" fill-opacity="0.9"/><line x1="1246" y1="426" x2="1246" y2="488" stroke="#3dd6ff" stroke-width="2" stroke-opacity="0.6"/><rect x="1237" y="462" width="18" height="10" fill="#3dd6ff" fill-opacity="0.9"/><line x1="1292" y1="431" x2="1292" y2="528" stroke="#ff5c7c" stroke-width="2" stroke-opacity="0.6"/><rect x="1283" y="462" width="18" height="52" fill="#ff5c7c" fill-opacity="0.9"/><line x1="1338" y1="442" x2="1338" y2="553" stroke="#3dd6ff" stroke-width="2" stroke-opacity="0.6"/><rect x="1329" y="458" width="18" height="56" fill="#3dd6ff" fill-opacity="0.9"/><line x1="1384" y1="401" x2="1384" y2="493" stroke="#3dd6ff" stroke-width="2" stroke-opacity="0.6"/><rect x="1375" y="425" width="18" height="33" fill="#3dd6ff" fill-opacity="0.9"/><g fill="none" stroke="#3dd6ff" stroke-width="2"><rect x="760" y="620" width="220" height="90" rx="12" stroke-opacity="0.8"/><rect x="1100" y="620" width="220" height="90" rx="12" stroke-opacity="0.8"/></g><text x="870" y="674" font-size="22" text-anchor="middle" fill="#3dd6ff">SOURCE</text><text x="1210" y="674" font-size="22" text-anchor="middle" fill="#3dd6ff">COPIER</text><path d="M980 658h110" stroke="#3dd6ff" stroke-width="2" marker-end="url(#ar2)"/><path d="M1100 682h-110" stroke="#3dd6ff" stroke-width="2" stroke-opacity="0.5" marker-end="url(#ar2b)"/><text x="1040" y="614" font-size="20" font-family="monospace" text-anchor="middle" fill="#3dd6ff">next block</text></g></svg>
