<svg xmlns="http://www.w3.org/2000/svg" viewBox="0 0 1600 1000" preserveAspectRatio="xMidYMid slice" font-family="'Space Grotesk',sans-serif">
<defs>
  <linearGradient id="bg" x1="0" y1="0" x2="1" y2="1"><stop offset="0" stop-color="#0c0c10"/><stop offset="1" stop-color="#060608"/></linearGradient>
  <radialGradient id="glow" cx="0.5" cy="0.46" r="0.7"><stop offset="0" stop-color="#ccff3d" stop-opacity="0.20"/><stop offset="1" stop-color="#ccff3d" stop-opacity="0"/></radialGradient>
  <pattern id="grid" width="50" height="50" patternUnits="userSpaceOnUse"><path d="M50 0H0V50" fill="none" stroke="#ccff3d" stroke-opacity="0.06" stroke-width="1"/></pattern>
</defs>
<rect width="1600" height="1000" fill="url(#bg)"/>
<rect width="1600" height="1000" fill="url(#grid)"/>
<rect width="1600" height="1000" fill="url(#glow)"/>
<g stroke="#ccff3d" stroke-opacity="0.45" stroke-width="2" fill="none">
  <path d="M84 116V84H116"/><path d="M1516 116V84H1484"/><path d="M84 884V916H116"/><path d="M1516 884V916H1484"/>
</g>
<text x="800" y="908" font-size="22" letter-spacing="5" fill="#83838c" font-family="monospace" text-anchor="middle">ENCRYPTION · TRAFFIC ANALYSIS · API WRAPPER</text>
<g transform="translate(-300,80)"><g stroke="#ccff3d" fill="none"><circle cx="1120" cy="420" r="110" stroke-opacity="0.9" stroke-width="2"/><circle cx="1120" cy="420" r="175" stroke-opacity="0.4" stroke-width="1"/><circle cx="1120" cy="420" r="250" stroke-opacity="0.22" stroke-width="1"/><circle cx="1120" cy="420" r="330" stroke-opacity="0.12" stroke-width="1"/><line x1="1370" y1="420" x2="1390" y2="420" stroke-opacity="0.4" stroke-width="2"/><line x1="1361" y1="485" x2="1381" y2="490" stroke-opacity="0.4" stroke-width="2"/><line x1="1337" y1="545" x2="1354" y2="555" stroke-opacity="0.4" stroke-width="2"/><line x1="1297" y1="597" x2="1311" y2="611" stroke-opacity="0.4" stroke-width="2"/><line x1="1245" y1="637" x2="1255" y2="654" stroke-opacity="0.4" stroke-width="2"/><line x1="1185" y1="661" x2="1190" y2="681" stroke-opacity="0.4" stroke-width="2"/><line x1="1120" y1="670" x2="1120" y2="690" stroke-opacity="0.4" stroke-width="2"/><line x1="1055" y1="661" x2="1050" y2="681" stroke-opacity="0.4" stroke-width="2"/><line x1="995" y1="637" x2="985" y2="654" stroke-opacity="0.4" stroke-width="2"/><line x1="943" y1="597" x2="929" y2="611" stroke-opacity="0.4" stroke-width="2"/><line x1="903" y1="545" x2="886" y2="555" stroke-opacity="0.4" stroke-width="2"/><line x1="879" y1="485" x2="859" y2="490" stroke-opacity="0.4" stroke-width="2"/><line x1="870" y1="420" x2="850" y2="420" stroke-opacity="0.4" stroke-width="2"/><line x1="879" y1="355" x2="859" y2="350" stroke-opacity="0.4" stroke-width="2"/><line x1="903" y1="295" x2="886" y2="285" stroke-opacity="0.4" stroke-width="2"/><line x1="943" y1="243" x2="929" y2="229" stroke-opacity="0.4" stroke-width="2"/><line x1="995" y1="203" x2="985" y2="186" stroke-opacity="0.4" stroke-width="2"/><line x1="1055" y1="179" x2="1050" y2="159" stroke-opacity="0.4" stroke-width="2"/><line x1="1120" y1="170" x2="1120" y2="150" stroke-opacity="0.4" stroke-width="2"/><line x1="1185" y1="179" x2="1190" y2="159" stroke-opacity="0.4" stroke-width="2"/><line x1="1245" y1="203" x2="1255" y2="186" stroke-opacity="0.4" stroke-width="2"/><line x1="1297" y1="243" x2="1311" y2="229" stroke-opacity="0.4" stroke-width="2"/><line x1="1337" y1="295" x2="1354" y2="285" stroke-opacity="0.4" stroke-width="2"/><line x1="1361" y1="355" x2="1381" y2="350" stroke-opacity="0.4" stroke-width="2"/></g><g fill="none" stroke="#ccff3d" stroke-width="6"><rect x="1065" y="410" width="110" height="90" rx="14" fill="#ccff3d" fill-opacity="0.12"/><path d="M1088 410v-26a32 32 0 0 1 64 0v26"/><circle cx="1120" cy="450" r="12" fill="#ccff3d" stroke="none"/></g><text x="780" y="260" font-size="22" font-family="monospace" fill="#ccff3d" fill-opacity="0.70">0x9F 4C A2</text><text x="780" y="320" font-size="22" font-family="monospace" fill="#ccff3d" fill-opacity="0.62">D3 7E 11 88</text><text x="780" y="380" font-size="22" font-family="monospace" fill="#ccff3d" fill-opacity="0.54">AES-256-GCM</text><text x="780" y="440" font-size="22" font-family="monospace" fill="#ccff3d" fill-opacity="0.46">payload+sig</text><text x="780" y="500" font-size="22" font-family="monospace" fill="#ccff3d" fill-opacity="0.38">0x00 1A FF</text></g></svg>
