<svg xmlns="http://www.w3.org/2000/svg" viewBox="0 0 1600 1000" preserveAspectRatio="xMidYMid slice" font-family="'Space Grotesk',sans-serif">
<defs>
  <linearGradient id="bg" x1="0" y1="0" x2="1" y2="1"><stop offset="0" stop-color="#0c0c10"/><stop offset="1" stop-color="#060608"/></linearGradient>
  <radialGradient id="glow" cx="0.5" cy="0.46" r="0.7"><stop offset="0" stop-color="#7c5cff" stop-opacity="0.20"/><stop offset="1" stop-color="#7c5cff" stop-opacity="0"/></radialGradient>
  <pattern id="grid" width="50" height="50" patternUnits="userSpaceOnUse"><path d="M50 0H0V50" fill="none" stroke="#7c5cff" stroke-opacity="0.06" stroke-width="1"/></pattern>
</defs>
<rect width="1600" height="1000" fill="url(#bg)"/>
<rect width="1600" height="1000" fill="url(#grid)"/>
<rect width="1600" height="1000" fill="url(#glow)"/>
<g stroke="#7c5cff" stroke-opacity="0.45" stroke-width="2" fill="none">
  <path d="M84 116V84H116"/><path d="M1516 116V84H1484"/><path d="M84 884V916H116"/><path d="M1516 884V916H1484"/>
</g>
<text x="800" y="908" font-size="22" letter-spacing="5" fill="#83838c" font-family="monospace" text-anchor="middle">IMAP LOGIN · QUEUE-IT BYPASS · 50 SESSIONS</text>
<g transform="translate(-228,-10)"><rect x="720" y="260" width="40" height="300" rx="4" fill="#7c5cff" fill-opacity="0.25"/><rect x="784" y="310" width="40" height="250" rx="4" fill="#7c5cff" fill-opacity="0.32"/><rect x="848" y="360" width="40" height="200" rx="4" fill="#7c5cff" fill-opacity="0.39"/><rect x="912" y="410" width="40" height="150" rx="4" fill="#7c5cff" fill-opacity="0.46"/><rect x="976" y="450" width="40" height="110" rx="4" fill="#7c5cff" fill-opacity="0.53"/><rect x="1040" y="480" width="40" height="80" rx="4" fill="#7c5cff" fill-opacity="0.60"/><rect x="1104" y="505" width="40" height="55" rx="4" fill="#7c5cff" fill-opacity="0.67"/><rect x="1168" y="522" width="40" height="38" rx="4" fill="#7c5cff" fill-opacity="0.74"/><rect x="1232" y="534" width="40" height="26" rx="4" fill="#7c5cff" fill-opacity="0.81"/><rect x="1296" y="542" width="40" height="18" rx="4" fill="#7c5cff" fill-opacity="0.88"/><path d="M738 260 Q1020 200 1316 534" fill="none" stroke="#7c5cff" stroke-width="2" stroke-dasharray="4 5" stroke-opacity="0.7"/><text x="720" y="240" font-size="26" font-family="monospace" fill="#7c5cff">QUEUE 1,043,200 to 482</text><rect x="760" y="640" width="30" height="26" rx="4" fill="#7c5cff" fill-opacity="0.9"/><rect x="802" y="640" width="30" height="26" rx="4" fill="#7c5cff" fill-opacity="0.18"/><rect x="844" y="640" width="30" height="26" rx="4" fill="#7c5cff" fill-opacity="0.18"/><rect x="886" y="640" width="30" height="26" rx="4" fill="#7c5cff" fill-opacity="0.9"/><rect x="928" y="640" width="30" height="26" rx="4" fill="#7c5cff" fill-opacity="0.18"/><rect x="970" y="640" width="30" height="26" rx="4" fill="#7c5cff" fill-opacity="0.18"/><rect x="1012" y="640" width="30" height="26" rx="4" fill="#7c5cff" fill-opacity="0.9"/><rect x="1054" y="640" width="30" height="26" rx="4" fill="#7c5cff" fill-opacity="0.18"/><rect x="1096" y="640" width="30" height="26" rx="4" fill="#7c5cff" fill-opacity="0.18"/><rect x="1138" y="640" width="30" height="26" rx="4" fill="#7c5cff" fill-opacity="0.9"/><rect x="1180" y="640" width="30" height="26" rx="4" fill="#7c5cff" fill-opacity="0.18"/><rect x="1222" y="640" width="30" height="26" rx="4" fill="#7c5cff" fill-opacity="0.18"/><rect x="1264" y="640" width="30" height="26" rx="4" fill="#7c5cff" fill-opacity="0.9"/><rect x="1306" y="640" width="30" height="26" rx="4" fill="#7c5cff" fill-opacity="0.18"/><rect x="760" y="680" width="30" height="26" rx="4" fill="#7c5cff" fill-opacity="0.18"/><rect x="802" y="680" width="30" height="26" rx="4" fill="#7c5cff" fill-opacity="0.9"/><rect x="844" y="680" width="30" height="26" rx="4" fill="#7c5cff" fill-opacity="0.18"/><rect x="886" y="680" width="30" height="26" rx="4" fill="#7c5cff" fill-opacity="0.18"/><rect x="928" y="680" width="30" height="26" rx="4" fill="#7c5cff" fill-opacity="0.9"/><rect x="970" y="680" width="30" height="26" rx="4" fill="#7c5cff" fill-opacity="0.18"/><rect x="1012" y="680" width="30" height="26" rx="4" fill="#7c5cff" fill-opacity="0.18"/><rect x="1054" y="680" width="30" height="26" rx="4" fill="#7c5cff" fill-opacity="0.9"/><rect x="1096" y="680" width="30" height="26" rx="4" fill="#7c5cff" fill-opacity="0.18"/><rect x="1138" y="680" width="30" height="26" rx="4" fill="#7c5cff" fill-opacity="0.18"/><rect x="1180" y="680" width="30" height="26" rx="4" fill="#7c5cff" fill-opacity="0.9"/><rect x="1222" y="680" width="30" height="26" rx="4" fill="#7c5cff" fill-opacity="0.18"/><rect x="1264" y="680" width="30" height="26" rx="4" fill="#7c5cff" fill-opacity="0.18"/><rect x="1306" y="680" width="30" height="26" rx="4" fill="#7c5cff" fill-opacity="0.9"/><rect x="760" y="720" width="30" height="26" rx="4" fill="#7c5cff" fill-opacity="0.18"/><rect x="802" y="720" width="30" height="26" rx="4" fill="#7c5cff" fill-opacity="0.18"/><rect x="844" y="720" width="30" height="26" rx="4" fill="#7c5cff" fill-opacity="0.9"/><rect x="886" y="720" width="30" height="26" rx="4" fill="#7c5cff" fill-opacity="0.18"/><rect x="928" y="720" width="30" height="26" rx="4" fill="#7c5cff" fill-opacity="0.18"/><rect x="970" y="720" width="30" height="26" rx="4" fill="#7c5cff" fill-opacity="0.9"/><rect x="1012" y="720" width="30" height="26" rx="4" fill="#7c5cff" fill-opacity="0.18"/><rect x="1054" y="720" width="30" height="26" rx="4" fill="#7c5cff" fill-opacity="0.18"/><rect x="1096" y="720" width="30" height="26" rx="4" fill="#7c5cff" fill-opacity="0.9"/><rect x="1138" y="720" width="30" height="26" rx="4" fill="#7c5cff" fill-opacity="0.18"/><rect x="1180" y="720" width="30" height="26" rx="4" fill="#7c5cff" fill-opacity="0.18"/><rect x="1222" y="720" width="30" height="26" rx="4" fill="#7c5cff" fill-opacity="0.9"/><rect x="1264" y="720" width="30" height="26" rx="4" fill="#7c5cff" fill-opacity="0.18"/><rect x="1306" y="720" width="30" height="26" rx="4" fill="#7c5cff" fill-opacity="0.18"/><rect x="760" y="760" width="30" height="26" rx="4" fill="#7c5cff" fill-opacity="0.9"/><rect x="802" y="760" width="30" height="26" rx="4" fill="#7c5cff" fill-opacity="0.18"/><rect x="844" y="760" width="30" height="26" rx="4" fill="#7c5cff" fill-opacity="0.18"/><rect x="886" y="760" width="30" height="26" rx="4" fill="#7c5cff" fill-opacity="0.9"/><rect x="928" y="760" width="30" height="26" rx="4" fill="#7c5cff" fill-opacity="0.18"/><rect x="970" y="760" width="30" height="26" rx="4" fill="#7c5cff" fill-opacity="0.18"/><rect x="1012" y="760" width="30" height="26" rx="4" fill="#7c5cff" fill-opacity="0.9"/><rect x="1054" y="760" width="30" height="26" rx="4" fill="#7c5cff" fill-opacity="0.18"/><rect x="1096" y="760" width="30" height="26" rx="4" fill="#7c5cff" fill-opacity="0.18"/><rect x="1138" y="760" width="30" height="26" rx="4" fill="#7c5cff" fill-opacity="0.9"/><rect x="1180" y="760" width="30" height="26" rx="4" fill="#7c5cff" fill-opacity="0.18"/><rect x="1222" y="760" width="30" height="26" rx="4" fill="#7c5cff" fill-opacity="0.18"/><rect x="1264" y="760" width="30" height="26" rx="4" fill="#7c5cff" fill-opacity="0.9"/><rect x="1306" y="760" width="30" height="26" rx="4" fill="#7c5cff" fill-opacity="0.18"/></g></svg>
