<svg xmlns="http://www.w3.org/2000/svg" viewBox="0 0 1600 1000" preserveAspectRatio="xMidYMid slice" font-family="'Space Grotesk',sans-serif">
<defs>
  <linearGradient id="bg" x1="0" y1="0" x2="1" y2="1"><stop offset="0" stop-color="#0c0c10"/><stop offset="1" stop-color="#060608"/></linearGradient>
  <radialGradient id="glow" cx="0.5" cy="0.46" r="0.7"><stop offset="0" stop-color="#ff9c3d" stop-opacity="0.20"/><stop offset="1" stop-color="#ff9c3d" stop-opacity="0"/></radialGradient>
  <pattern id="grid" width="50" height="50" patternUnits="userSpaceOnUse"><path d="M50 0H0V50" fill="none" stroke="#ff9c3d" stroke-opacity="0.06" stroke-width="1"/></pattern>
</defs>
<rect width="1600" height="1000" fill="url(#bg)"/>
<rect width="1600" height="1000" fill="url(#grid)"/>
<rect width="1600" height="1000" fill="url(#glow)"/>
<g stroke="#ff9c3d" stroke-opacity="0.45" stroke-width="2" fill="none">
  <path d="M84 116V84H116"/><path d="M1516 116V84H1484"/><path d="M84 884V916H116"/><path d="M1516 884V916H1484"/>
</g>
<text x="800" y="908" font-size="22" letter-spacing="5" fill="#83838c" font-family="monospace" text-anchor="middle">ACCOUNTS · MONITORS · BULK CHECKOUT</text>
<g transform="translate(-330,15)"><defs><marker id="ar" markerWidth="10" markerHeight="10" refX="6" refY="3" orient="auto"><path d="M0 0l6 3-6 3z" fill="#ff9c3d"/></marker></defs><circle cx="760" cy="250" r="10" fill="#ff9c3d" fill-opacity="0.95"/><circle cx="812" cy="250" r="10" fill="#ff9c3d" fill-opacity="0.95"/><circle cx="864" cy="250" r="7" fill="#ff9c3d" fill-opacity="0.14"/><circle cx="916" cy="250" r="10" fill="#ff9c3d" fill-opacity="0.95"/><circle cx="968" cy="250" r="7" fill="#ff9c3d" fill-opacity="0.14"/><circle cx="1020" cy="250" r="7" fill="#ff9c3d" fill-opacity="0.14"/><circle cx="1072" cy="250" r="10" fill="#ff9c3d" fill-opacity="0.95"/><circle cx="1124" cy="250" r="7" fill="#ff9c3d" fill-opacity="0.14"/><circle cx="1176" cy="250" r="10" fill="#ff9c3d" fill-opacity="0.95"/><circle cx="1228" cy="250" r="7" fill="#ff9c3d" fill-opacity="0.14"/><circle cx="1280" cy="250" r="10" fill="#ff9c3d" fill-opacity="0.95"/><circle cx="1332" cy="250" r="10" fill="#ff9c3d" fill-opacity="0.95"/><circle cx="1384" cy="250" r="7" fill="#ff9c3d" fill-opacity="0.14"/><circle cx="760" cy="294" r="7" fill="#ff9c3d" fill-opacity="0.14"/><circle cx="812" cy="294" r="10" fill="#ff9c3d" fill-opacity="0.95"/><circle cx="864" cy="294" r="10" fill="#ff9c3d" fill-opacity="0.95"/><circle cx="916" cy="294" r="7" fill="#ff9c3d" fill-opacity="0.14"/><circle cx="968" cy="294" r="7" fill="#ff9c3d" fill-opacity="0.14"/><circle cx="1020" cy="294" r="7" fill="#ff9c3d" fill-opacity="0.14"/><circle cx="1072" cy="294" r="7" fill="#ff9c3d" fill-opacity="0.14"/><circle cx="1124" cy="294" r="7" fill="#ff9c3d" fill-opacity="0.14"/><circle cx="1176" cy="294" r="10" fill="#ff9c3d" fill-opacity="0.95"/><circle cx="1228" cy="294" r="7" fill="#ff9c3d" fill-opacity="0.14"/><circle cx="1280" cy="294" r="10" fill="#ff9c3d" fill-opacity="0.95"/><circle cx="1332" cy="294" r="10" fill="#ff9c3d" fill-opacity="0.95"/><circle cx="1384" cy="294" r="10" fill="#ff9c3d" fill-opacity="0.95"/><circle cx="760" cy="338" r="10" fill="#ff9c3d" fill-opacity="0.95"/><circle cx="812" cy="338" r="7" fill="#ff9c3d" fill-opacity="0.14"/><circle cx="864" cy="338" r="10" fill="#ff9c3d" fill-opacity="0.95"/><circle cx="916" cy="338" r="7" fill="#ff9c3d" fill-opacity="0.14"/><circle cx="968" cy="338" r="7" fill="#ff9c3d" fill-opacity="0.14"/><circle cx="1020" cy="338" r="7" fill="#ff9c3d" fill-opacity="0.14"/><circle cx="1072" cy="338" r="7" fill="#ff9c3d" fill-opacity="0.14"/><circle cx="1124" cy="338" r="10" fill="#ff9c3d" fill-opacity="0.95"/><circle cx="1176" cy="338" r="10" fill="#ff9c3d" fill-opacity="0.95"/><circle cx="1228" cy="338" r="10" fill="#ff9c3d" fill-opacity="0.95"/><circle cx="1280" cy="338" r="7" fill="#ff9c3d" fill-opacity="0.14"/><circle cx="1332" cy="338" r="7" fill="#ff9c3d" fill-opacity="0.14"/><circle cx="1384" cy="338" r="10" fill="#ff9c3d" fill-opacity="0.95"/><circle cx="760" cy="382" r="7" fill="#ff9c3d" fill-opacity="0.14"/><circle cx="812" cy="382" r="7" fill="#ff9c3d" fill-opacity="0.14"/><circle cx="864" cy="382" r="10" fill="#ff9c3d" fill-opacity="0.95"/><circle cx="916" cy="382" r="7" fill="#ff9c3d" fill-opacity="0.14"/><circle cx="968" cy="382" r="7" fill="#ff9c3d" fill-opacity="0.14"/><circle cx="1020" cy="382" r="10" fill="#ff9c3d" fill-opacity="0.95"/><circle cx="1072" cy="382" r="7" fill="#ff9c3d" fill-opacity="0.14"/><circle cx="1124" cy="382" r="7" fill="#ff9c3d" fill-opacity="0.14"/><circle cx="1176" cy="382" r="7" fill="#ff9c3d" fill-opacity="0.14"/><circle cx="1228" cy="382" r="7" fill="#ff9c3d" fill-opacity="0.14"/><circle cx="1280" cy="382" r="10" fill="#ff9c3d" fill-opacity="0.95"/><circle cx="1332" cy="382" r="7" fill="#ff9c3d" fill-opacity="0.14"/><circle cx="1384" cy="382" r="10" fill="#ff9c3d" fill-opacity="0.95"/><circle cx="760" cy="426" r="7" fill="#ff9c3d" fill-opacity="0.14"/><circle cx="812" cy="426" r="7" fill="#ff9c3d" fill-opacity="0.14"/><circle cx="864" cy="426" r="10" fill="#ff9c3d" fill-opacity="0.95"/><circle cx="916" cy="426" r="7" fill="#ff9c3d" fill-opacity="0.14"/><circle cx="968" cy="426" r="10" fill="#ff9c3d" fill-opacity="0.95"/><circle cx="1020" cy="426" r="7" fill="#ff9c3d" fill-opacity="0.14"/><circle cx="1072" cy="426" r="7" fill="#ff9c3d" fill-opacity="0.14"/><circle cx="1124" cy="426" r="7" fill="#ff9c3d" fill-opacity="0.14"/><circle cx="1176" cy="426" r="7" fill="#ff9c3d" fill-opacity="0.14"/><circle cx="1228" cy="426" r="10" fill="#ff9c3d" fill-opacity="0.95"/><circle cx="1280" cy="426" r="7" fill="#ff9c3d" fill-opacity="0.14"/><circle cx="1332" cy="426" r="7" fill="#ff9c3d" fill-opacity="0.14"/><circle cx="1384" cy="426" r="7" fill="#ff9c3d" fill-opacity="0.14"/><circle cx="760" cy="470" r="7" fill="#ff9c3d" fill-opacity="0.14"/><circle cx="812" cy="470" r="7" fill="#ff9c3d" fill-opacity="0.14"/><circle cx="864" cy="470" r="7" fill="#ff9c3d" fill-opacity="0.14"/><circle cx="916" cy="470" r="7" fill="#ff9c3d" fill-opacity="0.14"/><circle cx="968" cy="470" r="7" fill="#ff9c3d" fill-opacity="0.14"/><circle cx="1020" cy="470" r="10" fill="#ff9c3d" fill-opacity="0.95"/><circle cx="1072" cy="470" r="7" fill="#ff9c3d" fill-opacity="0.14"/><circle cx="1124" cy="470" r="7" fill="#ff9c3d" fill-opacity="0.14"/><circle cx="1176" cy="470" r="7" fill="#ff9c3d" fill-opacity="0.14"/><circle cx="1228" cy="470" r="7" fill="#ff9c3d" fill-opacity="0.14"/><circle cx="1280" cy="470" r="10" fill="#ff9c3d" fill-opacity="0.95"/><circle cx="1332" cy="470" r="7" fill="#ff9c3d" fill-opacity="0.14"/><circle cx="1384" cy="470" r="7" fill="#ff9c3d" fill-opacity="0.14"/><circle cx="760" cy="514" r="10" fill="#ff9c3d" fill-opacity="0.95"/><circle cx="812" cy="514" r="7" fill="#ff9c3d" fill-opacity="0.14"/><circle cx="864" cy="514" r="10" fill="#ff9c3d" fill-opacity="0.95"/><circle cx="916" cy="514" r="10" fill="#ff9c3d" fill-opacity="0.95"/><circle cx="968" cy="514" r="10" fill="#ff9c3d" fill-opacity="0.95"/><circle cx="1020" cy="514" r="7" fill="#ff9c3d" fill-opacity="0.14"/><circle cx="1072" cy="514" r="10" fill="#ff9c3d" fill-opacity="0.95"/><circle cx="1124" cy="514" r="10" fill="#ff9c3d" fill-opacity="0.95"/><circle cx="1176" cy="514" r="7" fill="#ff9c3d" fill-opacity="0.14"/><circle cx="1228" cy="514" r="7" fill="#ff9c3d" fill-opacity="0.14"/><circle cx="1280" cy="514" r="10" fill="#ff9c3d" fill-opacity="0.95"/><circle cx="1332" cy="514" r="7" fill="#ff9c3d" fill-opacity="0.14"/><circle cx="1384" cy="514" r="7" fill="#ff9c3d" fill-opacity="0.14"/><circle cx="760" cy="558" r="7" fill="#ff9c3d" fill-opacity="0.14"/><circle cx="812" cy="558" r="7" fill="#ff9c3d" fill-opacity="0.14"/><circle cx="864" cy="558" r="7" fill="#ff9c3d" fill-opacity="0.14"/><circle cx="916" cy="558" r="10" fill="#ff9c3d" fill-opacity="0.95"/><circle cx="968" cy="558" r="7" fill="#ff9c3d" fill-opacity="0.14"/><circle cx="1020" cy="558" r="7" fill="#ff9c3d" fill-opacity="0.14"/><circle cx="1072" cy="558" r="7" fill="#ff9c3d" fill-opacity="0.14"/><circle cx="1124" cy="558" r="7" fill="#ff9c3d" fill-opacity="0.14"/><circle cx="1176" cy="558" r="10" fill="#ff9c3d" fill-opacity="0.95"/><circle cx="1228" cy="558" r="10" fill="#ff9c3d" fill-opacity="0.95"/><circle cx="1280" cy="558" r="10" fill="#ff9c3d" fill-opacity="0.95"/><circle cx="1332" cy="558" r="10" fill="#ff9c3d" fill-opacity="0.95"/><circle cx="1384" cy="558" r="7" fill="#ff9c3d" fill-opacity="0.14"/><text x="760" y="220" font-size="22" font-family="monospace" fill="#ff9c3d">500+ CONCURRENT ACCOUNTS</text><rect x="770" y="700" width="190" height="64" rx="32" fill="none" stroke="#ff9c3d" stroke-width="2" stroke-opacity="0.8"/><text x="865" y="740" font-size="22" text-anchor="middle" fill="#ff9c3d">CART</text><path d="M960 732h50" stroke="#ff9c3d" stroke-width="2" marker-end="url(#ar)"/><rect x="1020" y="700" width="190" height="64" rx="32" fill="none" stroke="#ff9c3d" stroke-width="2" stroke-opacity="0.8"/><text x="1115" y="740" font-size="22" text-anchor="middle" fill="#ff9c3d">3DS / OTP</text><path d="M1210 732h50" stroke="#ff9c3d" stroke-width="2" marker-end="url(#ar)"/><rect x="1270" y="700" width="190" height="64" rx="32" fill="none" stroke="#ff9c3d" stroke-width="2" stroke-opacity="0.8"/><text x="1365" y="740" font-size="22" text-anchor="middle" fill="#ff9c3d">COD 2s</text></g></svg>
